<svg viewBox="0 0 120 148" xmlns="http://www.w3.org/2000/svg"><defs><filter id="antiqueFoil" x="-20%" y="-20%" width="140%" height="140%"><feTurbulence type="fractalNoise" baseFrequency="0.9" numOctaves="2" seed="12" result="noise"/><feColorMatrix in="noise" type="matrix" values="0 0 0 0 0.78  0 0 0 0 0.62  0 0 0 0 0.30  0 0 0 .14 0" result="grain"/><feComposite in="SourceGraphic" in2="grain" operator="arithmetic" k1="0" k2="0.93" k3="0.14" k4="0" result="foiled"/><feDropShadow dx="0" dy="0.7" stdDeviation="0.3" flood-color="#f1dc91" flood-opacity="0.22"/><feDropShadow dx="0" dy="-0.7" stdDeviation="0.4" flood-color="#081222" flood-opacity="0.34"/></filter></defs><g filter="url(#antiqueFoil)"><g class="crest-wreath" fill="none" stroke="#C8A35A" stroke-width="2.6" stroke-linecap="round" stroke-linejoin="round"><path d="M59 132 C 36 126 22 105 22 78 C 22 53 33 36 51 29"/><path d="M59 132 C 36 126 22 105 22 78 C 22 53 33 36 51 29" transform="translate(120,0) scale(-1,1)"/></g><g class="crest-wreath" fill="#C8A35A"><ellipse cx="25" cy="102" rx="3.4" ry="7.4" transform="rotate(-32 25 102)"/><ellipse cx="95" cy="102" rx="3.4" ry="7.4" transform="rotate(32 95 102)"/><ellipse cx="22" cy="85" rx="3.4" ry="7.4" transform="rotate(-8 22 85)"/><ellipse cx="98" cy="85" rx="3.4" ry="7.4" transform="rotate(8 98 85)"/><ellipse cx="24" cy="67" rx="3.4" ry="7.4" transform="rotate(16 24 67)"/><ellipse cx="96" cy="67" rx="3.4" ry="7.4" transform="rotate(-16 96 67)"/><ellipse cx="31" cy="51" rx="3.4" ry="7.4" transform="rotate(40 31 51)"/><ellipse cx="89" cy="51" rx="3.4" ry="7.4" transform="rotate(-40 89 51)"/><ellipse cx="41" cy="39" rx="3.4" ry="7.4" transform="rotate(60 41 39)"/><ellipse cx="79" cy="39" rx="3.4" ry="7.4" transform="rotate(-60 79 39)"/><ellipse cx="52" cy="31" rx="3.4" ry="7.4" transform="rotate(78 52 31)"/><ellipse cx="68" cy="31" rx="3.4" ry="7.4" transform="rotate(-78 68 31)"/></g><g class="crest-wreath" fill="none" stroke="#C8A35A" stroke-width="3.2" stroke-linecap="round"><line x1="60" y1="11" x2="60" y2="32"/><line x1="51" y1="19" x2="69" y2="19"/></g><rect x="54" y="128" width="12" height="6" rx="3" fill="#C8A35A"/><g class="crest-field" fill="none" stroke="#C8A35A" stroke-width="1.4" opacity="0.34"><circle cx="60" cy="62" r="12.5"/><circle cx="47" cy="76" r="12.5"/><circle cx="73" cy="76" r="12.5"/><circle cx="60" cy="90" r="12.5"/></g><g class="crest-cross" fill="#C8A35A" stroke="#5f4316" stroke-width="0.8" stroke-linejoin="round"><path d="M56.4 50 H63.6 V69 H78 V76.2 H63.6 V104 H56.4 V76.2 H42 V69 H56.4 Z"/></g><g class="crest-glint" fill="none" stroke="#f1dc91" stroke-width="0.7" stroke-linecap="round" opacity="0.7"><path d="M57 52 V102"/><path d="M44 72.6 H76"/></g></g></svg>
